<svg width="960" height="540" viewBox="0 0 960 540" fill="none" xmlns="http://www.w3.org/2000/svg">
  <rect width="960" height="540" rx="24" fill="#EEF2FF"/>
  <rect x="32" y="32" width="896" height="64" rx="18" fill="#FFFFFF"/>
  <rect x="32" y="120" width="560" height="140" rx="22" fill="#FFFFFF"/>
  <rect x="616" y="120" width="312" height="140" rx="22" fill="#FFFFFF"/>
  <rect x="32" y="284" width="208" height="92" rx="20" fill="#FFFFFF"/>
  <rect x="256" y="284" width="208" height="92" rx="20" fill="#FFFFFF"/>
  <rect x="480" y="284" width="208" height="92" rx="20" fill="#FFFFFF"/>
  <rect x="704" y="284" width="224" height="92" rx="20" fill="#FFFFFF"/>
  <rect x="32" y="400" width="430" height="108" rx="22" fill="#FFFFFF"/>
  <rect x="486" y="400" width="442" height="108" rx="22" fill="#FFFFFF"/>
  <text x="72" y="72" font-size="24" font-family="Segoe UI, sans-serif" fill="#0F172A">Dashboard Preview</text>
  <text x="72" y="154" font-size="20" font-family="Segoe UI, sans-serif" fill="#0F172A">Upload + Processing Flow</text>
  <text x="652" y="154" font-size="20" font-family="Segoe UI, sans-serif" fill="#0F172A">AI Assistant</text>
  <text x="72" y="442" font-size="18" font-family="Segoe UI, sans-serif" fill="#0F172A">Global Insights</text>
  <text x="526" y="442" font-size="18" font-family="Segoe UI, sans-serif" fill="#0F172A">Recent Meetings</text>
</svg>
